<?xml version="1.0" encoding="UTF-8" standalone="no"?>
<!-- Creator: CorelDRAW -->
<svg
   xmlns:dc="http://purl.org/dc/elements/1.1/"
   xmlns:cc="http://web.resource.org/cc/"
   xmlns:rdf="http://www.w3.org/1999/02/22-rdf-syntax-ns#"
   xmlns:svg="http://www.w3.org/2000/svg"
   xmlns="http://www.w3.org/2000/svg"
   xmlns:sodipodi="http://sodipodi.sourceforge.net/DTD/sodipodi-0.dtd"
   xmlns:inkscape="http://www.inkscape.org/namespaces/inkscape"
   xml:space="preserve"
   width="744"
   height="830.98999"
   style="shape-rendering:geometricPrecision; text-rendering:geometricPrecision; image-rendering:optimizeQuality; fill-rule:evenodd; clip-rule:evenodd"
   viewBox="0 0 210 297"
   id="svg2"
   sodipodi:version="0.32"
   inkscape:version="0.45.1"
   sodipodi:docname="SŁO Kraj Bratysławski COA.svg"
   inkscape:output_extension="org.inkscape.output.svg.inkscape"
   sodipodi:docbase="C:\Users\Mistrz\Desktop"
   version="1.0"><metadata
   id="metadata52"><rdf:RDF><cc:Work
       rdf:about=""><dc:format>image/svg+xml</dc:format><dc:type
         rdf:resource="http://purl.org/dc/dcmitype/StillImage" /></cc:Work></rdf:RDF></metadata><sodipodi:namedview
   inkscape:window-height="480"
   inkscape:window-width="640"
   inkscape:pageshadow="2"
   inkscape:pageopacity="0.0"
   guidetolerance="10.0"
   gridtolerance="10.0"
   objecttolerance="10.0"
   borderopacity="1.0"
   bordercolor="#666666"
   pagecolor="#ffffff"
   id="base" />
 <defs
   id="defs4">
  <style
   type="text/css"
   id="style6">
   
    .str0 {stroke:#1F1A17;stroke-width:0.0762}
    .str1 {stroke:#1F1A17;stroke-width:0.0977}
    .str2 {stroke:#1F1A17;stroke-width:0.1132}
    .fil2 {fill:none;fill-rule:nonzero}
    .fil0 {fill:#003D76;fill-rule:nonzero}
    .fil4 {fill:#1F1A17;fill-rule:nonzero}
    .fil3 {fill:#FFF500;fill-rule:nonzero}
    .fil1 {fill:white;fill-rule:nonzero}
   
  </style>
 </defs>
 <g
   id="Warstwa_x0020_1"
   transform="matrix(24.593218,0,0,24.593218,-3001.5518,-3138.916)">
  <metadata
   id="CorelCorpID_0Corel-Layer" />
  <g
   id="_104786920">
   <path
   id="_118028224"
   class="fil0"
   d="M 131.638,127.69 L 120.968,127.69 C 120.968,128.3649 120.9718,129.0405 120.968,129.715 C 120.9609,130.9271 120.9789,132.1403 120.9747,133.3524 C 120.9715,134.2735 120.9101,135.1568 121.2287,136.031 C 121.9797,138.0902 123.8893,139.6533 126.314,139.6533 C 128.7829,139.6533 130.8619,137.972 131.4394,135.825 C 131.783,134.5434 131.6323,133.2286 131.6436,131.917 C 131.6535,130.761 131.6429,129.6028 131.6355,128.4475 C 131.6341,128.1949 131.638,127.9423 131.638,127.69 L 131.638,127.69 z "
   style="fill:#003d76;fill-rule:nonzero" />
   <path
   id="_118029232"
   class="fil1"
   d="M 127.62,129.443 C 127.62,129.443 127.3219,129.4762 127.348,129.4166 C 127.3745,129.357 127.5869,129.0719 127.7195,128.9714 C 127.8518,128.8722 128.0839,128.7138 128.455,128.6867 C 128.8268,128.6602 129.1058,128.4881 129.1845,128.4344 C 129.2642,128.3815 129.5362,128.1699 129.6025,128.0965 C 129.6692,128.0235 129.8216,127.9307 129.7687,128.1561 C 129.7151,128.3815 129.4769,128.7336 129.2378,128.8264 C 129.2378,128.8264 129.3909,128.9319 129.5429,128.8856 C 129.6957,128.8398 129.8883,128.6271 129.9274,128.6468 C 129.9673,128.6666 130.0202,128.7138 129.9077,128.8786 C 129.7951,129.0455 129.7087,129.085 129.7087,129.085 C 129.7087,129.085 129.503,129.2501 129.1714,129.1643 C 129.1714,129.1643 128.9922,128.9855 128.9058,128.9855 C 128.8201,128.9855 128.7005,129.0246 128.6208,128.9982 C 128.6208,128.9982 128.873,129.0388 128.9255,129.2303 C 128.9255,129.2303 128.7142,129.3499 128.5217,129.2568 C 128.3294,129.1643 128.1901,129.1315 128.0515,129.1975 C 127.9118,129.2628 127.6994,129.443 127.62,129.443 z "
   style="fill:#ffffff;fill-rule:nonzero" />
   <path
   id="_118029136"
   class="fil2 str0"
   d="M 127.62,129.443 C 127.62,129.443 127.3219,129.4762 127.348,129.4166 C 127.3745,129.357 127.5869,129.0719 127.7195,128.9714 C 127.8518,128.8722 128.0839,128.7138 128.455,128.6867 C 128.8268,128.6602 129.1058,128.4881 129.1845,128.4344 C 129.2642,128.3815 129.5362,128.1699 129.6025,128.0965 C 129.6692,128.0235 129.8216,127.9307 129.7687,128.1561 C 129.7151,128.3815 129.4769,128.7336 129.2378,128.8264 C 129.2378,128.8264 129.3909,128.9319 129.5429,128.8856 C 129.6957,128.8398 129.8883,128.6271 129.9274,128.6468 C 129.9673,128.6666 130.0202,128.7138 129.9077,128.8786 C 129.7951,129.0455 129.7087,129.085 129.7087,129.085 C 129.7087,129.085 129.503,129.2501 129.1714,129.1643 C 129.1714,129.1643 128.9922,128.9855 128.9058,128.9855 C 128.8201,128.9855 128.7005,129.0246 128.6208,128.9982 C 128.6208,128.9982 128.873,129.0388 128.9255,129.2303 C 128.9255,129.2303 128.7142,129.3499 128.5217,129.2568 C 128.3294,129.1643 128.1901,129.1315 128.0515,129.1975 C 127.9118,129.2628 127.6994,129.443 127.62,129.443 z "
   style="fill:none;fill-rule:nonzero;stroke:#1f1a17;stroke-width:0.0762" />
   <path
   id="_104791528"
   class="fil1"
   d="M 127.653,129.476 C 127.653,129.476 127.6932,129.3963 127.9779,129.403 C 128.2629,129.4104 128.5483,129.2435 128.7077,129.2238 C 128.8664,129.204 129.1917,129.1642 129.4238,129.1508 C 129.6559,129.1377 130.2535,128.8918 130.3978,128.7334 C 130.5442,128.5736 130.7164,128.17 130.7831,128.17 C 130.8494,128.17 130.9086,128.1891 130.9023,128.302 C 130.8952,128.4145 130.9355,128.8329 130.1731,129.2965 C 130.1731,129.2965 130.2324,129.4429 130.4917,129.3568 C 130.7495,129.27 130.8889,129.0583 130.9492,128.998 C 131.0092,128.9384 131.0882,128.8654 131.0953,129.0245 C 131.0953,129.0245 131.0748,129.2626 130.8162,129.4958 C 130.558,129.7283 130.4313,129.7671 130.3259,129.7741 C 130.2197,129.7808 130.0867,129.735 129.875,129.6284 C 129.6626,129.5226 129.2837,129.5155 129.2315,129.5621 C 129.2315,129.5621 129.4499,129.9071 129.6027,129.9406 C 129.7558,129.9731 130.0602,130.0063 130.1071,130.0063 C 130.1533,130.0063 130.2324,130.0197 130.1399,130.1188 C 130.0468,130.2186 129.7282,130.3178 129.4429,130.2391 C 129.1585,130.159 128.9193,129.9004 128.8527,129.7674 C 128.787,129.6344 128.0047,129.6344 128.0047,129.6344 L 127.6399,129.7875 L 127.5542,129.7219 L 127.653,129.476 L 127.653,129.476 z "
   style="fill:#ffffff;fill-rule:nonzero" />
   <path
   id="_104784880"
   class="fil2 str0"
   d="M 127.653,129.476 C 127.653,129.476 127.6932,129.3963 127.9779,129.403 C 128.2629,129.4104 128.5483,129.2435 128.7077,129.2238 C 128.8664,129.204 129.1917,129.1642 129.4238,129.1508 C 129.6559,129.1377 130.2535,128.8918 130.3978,128.7334 C 130.5442,128.5736 130.7164,128.17 130.7831,128.17 C 130.8494,128.17 130.9086,128.1891 130.9023,128.302 C 130.8952,128.4145 130.9355,128.8329 130.1731,129.2965 C 130.1731,129.2965 130.2324,129.4429 130.4917,129.3568 C 130.7495,129.27 130.8889,129.0583 130.9492,128.998 C 131.0092,128.9384 131.0882,128.8654 131.0953,129.0245 C 131.0953,129.0245 131.0748,129.2626 130.8162,129.4958 C 130.558,129.7283 130.4313,129.7671 130.3259,129.7741 C 130.2197,129.7808 130.0867,129.735 129.875,129.6284 C 129.6626,129.5226 129.2837,129.5155 129.2315,129.5621 C 129.2315,129.5621 129.4499,129.9071 129.6027,129.9406 C 129.7558,129.9731 130.0602,130.0063 130.1071,130.0063 C 130.1533,130.0063 130.2324,130.0197 130.1399,130.1188 C 130.0468,130.2186 129.7282,130.3178 129.4429,130.2391 C 129.1585,130.159 128.9193,129.9004 128.8527,129.7674 C 128.787,129.6344 128.0047,129.6344 128.0047,129.6344 L 127.6399,129.7875 L 127.5542,129.7219 L 127.653,129.476 L 127.653,129.476 z "
   style="fill:none;fill-rule:nonzero;stroke:#1f1a17;stroke-width:0.0762" />
   <path
   id="_104790808"
   class="fil1"
   d="M 122.566,130.715 C 122.566,130.715 122.1025,130.9012 121.9102,131.4847 C 121.9102,131.4847 121.8763,131.5518 122.0361,131.5437 C 122.0584,131.5426 122.1018,131.5422 122.1268,131.5204 L 122.4729,131.1528 C 122.4729,131.1528 121.9628,131.6237 122.0432,131.7038 C 122.1222,131.7832 122.3215,131.7701 122.4404,131.7433 C 122.5593,131.7172 122.6461,131.6573 122.7385,131.5243 C 122.831,131.3916 123.0038,131.2526 123.0038,131.2526 C 123.0038,131.2526 122.9908,130.8945 122.6461,130.7347 L 122.566,130.715 L 122.566,130.715 z "
   style="fill:#ffffff;fill-rule:nonzero" />
   <path
   id="_104787568"
   class="fil2 str0"
   d="M 122.566,130.715 C 122.566,130.715 122.1025,130.9012 121.9102,131.4847 C 121.9102,131.4847 121.8763,131.5518 122.0361,131.5437 C 122.0584,131.5426 122.1018,131.5422 122.1268,131.5204 L 122.4729,131.1528 C 122.4729,131.1528 121.9628,131.6237 122.0432,131.7038 C 122.1222,131.7832 122.3215,131.7701 122.4404,131.7433 C 122.5593,131.7172 122.6461,131.6573 122.7385,131.5243 C 122.831,131.3916 123.0038,131.2526 123.0038,131.2526 C 123.0038,131.2526 122.9908,130.8945 122.6461,130.7347 L 122.566,130.715 L 122.566,130.715 z "
   style="fill:none;fill-rule:nonzero;stroke:#1f1a17;stroke-width:0.0762" />
   <path
   id="_104784904"
   class="fil3"
   d="M 125.258,131.462 C 125.258,131.462 124.8255,130.949 124.6092,130.5504 C 124.4882,130.3278 124.1929,130.3694 123.982,130.3952 C 123.8031,130.4163 122.6132,130.4276 122.5698,130.7324 C 122.5698,130.7324 122.6943,130.8079 122.7526,130.8577 C 122.8351,130.9289 122.9572,131.0972 122.9801,131.2115 C 123.003,131.3251 123.1399,131.2567 123.1963,131.245 C 123.2531,131.2334 123.903,130.9603 124.0511,131.04 C 124.1989,131.1201 124.1414,131.1656 124.1414,131.1656 L 124.3358,132.0197 L 124.974,132.0769 L 125.258,131.462 L 125.258,131.462 z "
   style="fill:#fff500;fill-rule:nonzero" />
   <path
   id="_104788168"
   class="fil2 str0"
   d="M 125.258,131.462 C 125.258,131.462 124.8255,130.949 124.6092,130.5504 C 124.4882,130.3278 124.1929,130.3694 123.982,130.3952 C 123.8031,130.4163 122.6132,130.4276 122.5698,130.7324 C 122.5698,130.7324 122.6943,130.8079 122.7526,130.8577 C 122.8351,130.9289 122.9572,131.0972 122.9801,131.2115 C 123.003,131.3251 123.1399,131.2567 123.1963,131.245 C 123.2531,131.2334 123.903,130.9603 124.0511,131.04 C 124.1989,131.1201 124.1414,131.1656 124.1414,131.1656 L 124.3358,132.0197 L 124.974,132.0769 L 125.258,131.462 L 125.258,131.462 z "
   style="fill:none;fill-rule:nonzero;stroke:#1f1a17;stroke-width:0.0762" />
   <path
   id="_104791984"
   class="fil3"
   d="M 125.339,134.173 C 125.339,134.173 124.7121,133.0677 124.8031,132.2141 C 124.8941,131.3586 125.4981,131.2792 125.6004,131.245 C 125.7034,131.2118 126.5007,131.04 126.5578,130.8467 C 126.5578,130.8467 126.5127,130.7324 126.1588,130.8351 C 125.806,130.9377 125.5217,130.6788 125.5718,130.6065 C 125.5718,130.6065 125.5686,130.604 125.5587,130.5776 C 125.5231,130.4939 125.4691,130.2996 125.6349,130.151 C 125.6349,130.151 125.4751,129.9464 125.7489,129.9126 C 126.0223,129.8787 126.4664,129.8441 126.5462,129.7986 C 126.6255,129.7528 126.8309,129.5249 127.002,129.4801 C 127.002,129.4801 126.9448,129.262 126.9681,129.1382 C 126.9903,129.0126 126.8993,128.7625 126.8309,128.705 C 126.8309,128.705 127.0362,128.7625 127.1159,128.8758 C 127.1159,128.8758 127.1614,128.7964 127.2524,128.8867 C 127.3434,128.9781 127.5498,129.135 127.5498,129.135 C 127.5498,129.135 127.3251,129.3679 127.3434,129.3887 C 127.377,129.4275 127.5258,129.4 127.6056,129.4342 C 127.6849,129.4681 127.7082,129.673 127.6056,129.7192 C 127.6056,129.7192 127.7883,129.697 128.0614,129.5707 C 128.4078,129.4113 128.7555,129.6173 128.8815,129.6956 C 129.0286,129.7873 129.0765,129.7746 129.0765,129.7746 C 129.0765,129.7746 129.0187,129.7746 128.9951,129.7806 C 128.8906,129.8103 128.7315,129.9006 128.5732,130.018 C 128.4734,130.0925 128.424,130.1242 128.3012,130.151 C 128.3012,130.151 128.3464,131.1307 127.8793,131.6786 C 127.4126,132.2254 127.3212,132.6349 127.3096,132.7834 C 127.2983,132.9315 127.1505,133.1937 127.3773,134.0707 L 127.4232,134.1843 L 125.339,134.173 L 125.339,134.173 z "
   style="fill:#fff500;fill-rule:nonzero" />
   <path
   id="_104790880"
   class="fil2 str0"
   d="M 125.339,134.173 C 125.339,134.173 124.7121,133.0677 124.8031,132.2141 C 124.8941,131.3586 125.4981,131.2792 125.6004,131.245 C 125.7034,131.2118 126.5007,131.04 126.5578,130.8467 C 126.5578,130.8467 126.5127,130.7324 126.1588,130.8351 C 125.806,130.9377 125.5217,130.6788 125.5718,130.6065 C 125.5718,130.6065 125.5686,130.604 125.5587,130.5776 C 125.5231,130.4939 125.4691,130.2996 125.6349,130.151 C 125.6349,130.151 125.4751,129.9464 125.7489,129.9126 C 126.0223,129.8787 126.4664,129.8441 126.5462,129.7986 C 126.6255,129.7528 126.8309,129.5249 127.002,129.4801 C 127.002,129.4801 126.9448,129.262 126.9681,129.1382 C 126.9903,129.0126 126.8993,128.7625 126.8309,128.705 C 126.8309,128.705 127.0362,128.7625 127.1159,128.8758 C 127.1159,128.8758 127.1614,128.7964 127.2524,128.8867 C 127.3434,128.9781 127.5498,129.135 127.5498,129.135 C 127.5498,129.135 127.3251,129.3679 127.3434,129.3887 C 127.377,129.4275 127.5258,129.4 127.6056,129.4342 C 127.6849,129.4681 127.7082,129.673 127.6056,129.7192 C 127.6056,129.7192 127.7883,129.697 128.0614,129.5707 C 128.4078,129.4113 128.7555,129.6173 128.8815,129.6956 C 129.0286,129.7873 129.0765,129.7746 129.0765,129.7746 C 129.0765,129.7746 129.0187,129.7746 128.9951,129.7806 C 128.8906,129.8103 128.7315,129.9006 128.5732,130.018 C 128.4734,130.0925 128.424,130.1242 128.3012,130.151 C 128.3012,130.151 128.3464,131.1307 127.8793,131.6786 C 127.4126,132.2254 127.3212,132.6349 127.3096,132.7834 C 127.2983,132.9315 127.1505,133.1937 127.3773,134.0707 L 127.4232,134.1843 L 125.339,134.173 L 125.339,134.173 z "
   style="fill:none;fill-rule:nonzero;stroke:#1f1a17;stroke-width:0.0762" />
   <path
   id="_104791888"
   class="fil2 str0"
   d="M 127.116,128.876 C 127.116,128.876 127.1361,129.0178 127.1816,129.0583 C 127.2285,129.0978 127.261,129.18 127.3015,129.2898 C 127.3481,129.4164 127.3495,129.4079 127.3495,129.4079 C 127.3495,129.4079 127.1569,129.421 126.9957,129.482"
   style="fill:none;fill-rule:nonzero;stroke:#1f1a17;stroke-width:0.0762" />
   <path
   id="_104785000"
   class="fil3"
   d="M 127.752,129.913 C 127.752,129.913 127.9728,129.9507 128.0854,129.8851 C 128.1986,129.8181 128.2903,129.7436 128.423,129.7369 C 128.5546,129.7306 128.8282,129.6932 128.9672,129.7461 L 127.752,129.913 z "
   style="fill:#fff500;fill-rule:nonzero" />
   <path
   id="_104791648"
   class="fil2 str0"
   d="M 127.752,129.913 C 127.752,129.913 127.9728,129.9507 128.0854,129.8851 C 128.1986,129.8181 128.2903,129.7436 128.423,129.7369 C 128.5546,129.7306 128.8282,129.6932 128.9672,129.7461"
   style="fill:none;fill-rule:nonzero;stroke:#1f1a17;stroke-width:0.0762" />
   <path
   id="_104788504"
   class="fil4"
   d="M 126.767,130.009 C 126.767,130.009 126.8217,129.9734 126.8873,129.9314 C 126.9529,129.8887 127.0506,129.8407 127.1621,129.9078 C 127.22,129.9427 127.2436,129.9734 127.2856,130.0009 C 127.3297,130.0288 127.348,130.063 127.348,130.063 C 127.348,130.063 127.2436,130.0468 127.2238,130.0588 C 127.2238,130.0588 127.1967,130.2066 127.0418,130.2027 C 126.8873,130.1981 126.8795,130.0429 126.8795,130.0429 C 126.8795,130.0429 126.8217,130.0319 126.7709,130.0362 C 126.7709,130.0362 126.7289,130.0362 126.767,130.009 L 126.767,130.009 z "
   style="fill:#1f1a17;fill-rule:nonzero" />
   <path
   id="_104787760"
   class="fil1"
   d="M 127.086,130.024 C 127.086,130.0596 127.0532,130.0896 127.0127,130.0896 C 126.9721,130.0896 126.9382,130.0596 126.9382,130.024 C 126.9382,129.9869 126.9721,129.9577 127.0127,129.9577 C 127.0532,129.9577 127.086,129.9869 127.086,130.024 z "
   style="fill:#ffffff;fill-rule:nonzero" />
   <path
   id="_104791792"
   class="fil1"
   d="M 122.375,132.672 C 122.375,132.672 122.1686,132.7581 122.0695,133.0227 C 121.97,133.2887 121.8962,133.3282 121.8962,133.4943 C 121.8962,133.5871 122.1026,133.4943 122.1026,133.4943 C 122.1026,133.4943 122.2413,133.3811 122.4208,133.0227 C 122.4208,133.0227 122.0628,133.5476 122.1026,133.7596 C 122.1213,133.8609 122.2956,133.7794 122.3877,133.7328 C 122.4804,133.6866 122.7987,133.5804 122.8248,133.428 C 122.8248,133.428 122.8184,133.361 122.8311,133.3412 C 122.8449,133.3215 122.9913,133.1694 122.9913,133.1694 C 122.9913,133.1694 122.7387,132.5923 122.375,132.672 L 122.375,132.672 z "
   style="fill:#ffffff;fill-rule:nonzero" />
   <path
   id="_104791216"
   class="fil2 str0"
   d="M 122.375,132.672 C 122.375,132.672 122.1686,132.7581 122.0695,133.0227 C 121.97,133.2887 121.8962,133.3282 121.8962,133.4943 C 121.8962,133.5871 122.1026,133.4943 122.1026,133.4943 C 122.1026,133.4943 122.2413,133.3811 122.4208,133.0227 C 122.4208,133.0227 122.0628,133.5476 122.1026,133.7596 C 122.1213,133.8609 122.2956,133.7794 122.3877,133.7328 C 122.4804,133.6866 122.7987,133.5804 122.8248,133.428 C 122.8248,133.428 122.8184,133.361 122.8311,133.3412 C 122.8449,133.3215 122.9913,133.1694 122.9913,133.1694 C 122.9913,133.1694 122.7387,132.5923 122.375,132.672 L 122.375,132.672 z "
   style="fill:none;fill-rule:nonzero;stroke:#1f1a17;stroke-width:0.0762" />
   <path
   id="_104788768"
   class="fil3"
   d="M 126.284,132.555 C 126.284,132.555 125.7721,133.0788 125.4415,133.0908 C 125.1106,133.1021 124.8372,132.9988 124.6213,132.8968 C 124.4047,132.7938 123.9263,132.4528 123.8015,132.4644 C 123.6759,132.4753 123.6526,132.5211 123.5281,132.6005 C 123.4021,132.6806 123.1869,133.0104 123.1298,133.1131 C 123.073,133.2157 123.0148,133.1931 122.9467,133.1706 C 122.8779,133.1476 122.844,132.9423 122.7075,132.8517 C 122.5706,132.7599 122.3547,132.737 122.3547,132.6911 C 122.3547,132.6456 122.4344,132.5779 122.6048,132.4979 C 122.7756,132.4185 123.5281,131.7578 123.5958,131.7352 C 123.6639,131.7123 123.9263,131.7006 124.017,131.7917 C 124.1087,131.8827 124.8033,132.2012 125.5213,131.7807 L 126.284,132.555 L 126.284,132.555 z "
   style="fill:#fff500;fill-rule:nonzero" />
   <path
   id="_104791144"
   class="fil2 str0"
   d="M 126.284,132.555 C 126.284,132.555 125.7721,133.0788 125.4415,133.0908 C 125.1106,133.1021 124.8372,132.9988 124.6213,132.8968 C 124.4047,132.7938 123.9263,132.4528 123.8015,132.4644 C 123.6759,132.4753 123.6526,132.5211 123.5281,132.6005 C 123.4021,132.6806 123.1869,133.0104 123.1298,133.1131 C 123.073,133.2157 123.0148,133.1931 122.9467,133.1706 C 122.8779,133.1476 122.844,132.9423 122.7075,132.8517 C 122.5706,132.7599 122.3547,132.737 122.3547,132.6911 C 122.3547,132.6456 122.4344,132.5779 122.6048,132.4979 C 122.7756,132.4185 123.5281,131.7578 123.5958,131.7352 C 123.6639,131.7123 123.9263,131.7006 124.017,131.7917 C 124.1087,131.8827 124.8033,132.2012 125.5213,131.7807"
   style="fill:none;fill-rule:nonzero;stroke:#1f1a17;stroke-width:0.0762" />
   <polygon
   id="_104790616"
   class="fil1"
   points="126.148,136.03 124.507,135.961 124.483,136.372 126.273,136.384 126.148,136.03 "
   style="fill:#ffffff;fill-rule:nonzero" />
   <polygon
   id="_104791912"
   class="fil2 str1"
   points="126.148,136.03 124.507,135.961 124.483,136.372 126.273,136.384 126.148,136.03 "
   style="fill:none;fill-rule:nonzero;stroke:#1f1a17;stroke-width:0.0977" />
   <polygon
   id="_104785912"
   class="fil1"
   points="124.963,134.959 125.931,135.916 126.284,135.836 125.328,134.572 124.963,134.959 "
   style="fill:#ffffff;fill-rule:nonzero" />
   <polygon
   id="_104788840"
   class="fil2 str1"
   points="124.963,134.959 125.931,135.916 126.284,135.836 125.328,134.572 124.963,134.959 "
   style="fill:none;fill-rule:nonzero;stroke:#1f1a17;stroke-width:0.0977" />
   <polygon
   id="_104786128"
   class="fil1"
   points="126.216,134.162 126.296,135.631 126.603,135.677 126.763,134.218 126.216,134.162 "
   style="fill:#ffffff;fill-rule:nonzero" />
   <polygon
   id="_104785696"
   class="fil2 str1"
   points="126.216,134.162 126.296,135.631 126.603,135.677 126.763,134.218 126.216,134.162 "
   style="fill:none;fill-rule:nonzero;stroke:#1f1a17;stroke-width:0.0977" />
   <polygon
   id="_104787928"
   class="fil1"
   points="126.74,135.665 127.628,134.743 128.005,135.176 126.933,135.961 126.74,135.665 "
   style="fill:#ffffff;fill-rule:nonzero" />
   <polygon
   id="_104785408"
   class="fil2 str1"
   points="126.74,135.665 127.628,134.743 128.005,135.176 126.933,135.961 126.74,135.665 "
   style="fill:none;fill-rule:nonzero;stroke:#1f1a17;stroke-width:0.0977" />
   <polygon
   id="_104789536"
   class="fil1"
   points="126.729,136.041 128.278,136.03 128.221,136.532 126.546,136.292 126.729,136.041 "
   style="fill:#ffffff;fill-rule:nonzero" />
   <polygon
   id="_104785096"
   class="fil2 str1"
   points="126.729,136.041 128.278,136.03 128.221,136.532 126.546,136.292 126.729,136.041 "
   style="fill:none;fill-rule:nonzero;stroke:#1f1a17;stroke-width:0.0977" />
   <path
   id="_104788648"
   class="fil1"
   d="M 126.945,135.939 C 126.945,136.198 126.7005,136.4072 126.3985,136.4072 C 126.0965,136.4072 125.851,136.198 125.851,135.939 C 125.851,135.6808 126.0965,135.4726 126.3985,135.4726 C 126.7005,135.4726 126.945,135.6808 126.945,135.939 z "
   style="fill:#ffffff;fill-rule:nonzero" />
   <path
   id="_104791552"
   class="fil2 str1"
   d="M 126.945,135.939 C 126.945,136.198 126.7005,136.4072 126.3985,136.4072 C 126.0965,136.4072 125.851,136.198 125.851,135.939 C 125.851,135.6808 126.0965,135.4726 126.3985,135.4726 C 126.7005,135.4726 126.945,135.6808 126.945,135.939 z "
   style="fill:none;fill-rule:nonzero;stroke:#1f1a17;stroke-width:0.0977" />
   <path
   id="_104785984"
   class="fil1"
   d="M 124.836,136.858 C 124.7206,136.6298 124.655,136.3716 124.655,136.0989 C 124.655,135.1548 125.4325,134.3893 126.3921,134.3893 C 127.3516,134.3893 128.1299,135.1548 128.1299,136.0989 C 128.1299,136.4368 128.029,136.7526 127.8561,137.0182 C 128.0156,137.112 128.1627,137.2055 128.2851,137.2884 C 128.5088,136.9448 128.6393,136.5367 128.6393,136.0989 C 128.6393,134.8776 127.6332,133.888 126.3921,133.888 C 125.151,133.888 124.1449,134.8776 124.1449,136.0989 C 124.1449,136.4319 124.2207,136.7483 124.3559,137.032 C 124.474,136.9886 124.6427,136.9261 124.836,136.858 L 124.836,136.858 z "
   style="fill:#ffffff;fill-rule:nonzero" />
   <path
   id="_104785288"
   class="fil2 str1"
   d="M 124.836,136.858 C 124.7206,136.6298 124.655,136.3716 124.655,136.0989 C 124.655,135.1548 125.4325,134.3893 126.3921,134.3893 C 127.3516,134.3893 128.1299,135.1548 128.1299,136.0989 C 128.1299,136.4368 128.029,136.7526 127.8561,137.0182 C 128.0156,137.112 128.1627,137.2055 128.2851,137.2884 C 128.5088,136.9448 128.6393,136.5367 128.6393,136.0989 C 128.6393,134.8776 127.6332,133.888 126.3921,133.888 C 125.151,133.888 124.1449,134.8776 124.1449,136.0989 C 124.1449,136.4319 124.2207,136.7483 124.3559,137.032 C 124.474,136.9886 124.6427,136.9261 124.836,136.858 L 124.836,136.858 z "
   style="fill:none;fill-rule:nonzero;stroke:#1f1a17;stroke-width:0.0977" />
   <path
   id="_104784640"
   class="fil3"
   d="M 121.344,136.346 L 121.1986,135.9928 C 121.1986,135.9928 121.6371,135.6023 122.0471,135.5741 C 122.3282,135.5547 122.6161,135.5963 122.9354,135.9159 C 123.2539,136.2348 123.63,136.8268 124.1422,136.8388 C 124.6555,136.8501 124.9169,136.8247 125.3279,136.3488 C 125.5438,136.0987 125.7463,135.893 126.0282,135.8136 C 126.2924,135.7388 126.5795,135.7685 126.836,135.8581 C 127.1197,135.9579 127.2883,136.1643 127.4805,136.3834 C 127.6516,136.5763 128.0729,137.0438 128.7346,136.9418 C 128.9519,136.9076 129.1826,136.8543 129.3343,136.6896 C 129.7936,136.1893 130.0808,135.7903 130.75,135.7903 C 130.8982,135.7903 131.2654,135.8944 131.4146,135.9741 L 131.1345,136.6882 C 131.1345,136.6882 130.6022,136.565 130.2152,136.8843 C 129.8278,137.2036 129.6458,137.5108 129.4754,137.659 C 129.304,137.8072 129.1262,137.9504 128.6087,137.9892 C 128.1536,138.0234 127.7762,137.75 127.4576,137.3168 C 127.0816,136.807 126.7514,136.7354 126.4557,136.7474 C 126.1594,136.7587 125.8066,136.7933 125.4415,137.2378 C 125.0771,137.6819 124.792,137.9892 124.12,137.9095 C 123.4476,137.8297 123.3227,137.4195 123.1057,137.1799 C 122.8895,136.9418 122.6503,136.5537 122.2517,136.5315 C 121.853,136.5082 121.477,136.6451 121.477,136.6451 L 121.344,136.346 L 121.344,136.346 z "
   style="fill:#fff500;fill-rule:nonzero" />
   <path
   id="_104785816"
   class="fil2 str0"
   d="M 121.344,136.346 L 121.1986,135.9928 C 121.1986,135.9928 121.6371,135.6023 122.0471,135.5741 C 122.3282,135.5547 122.6161,135.5963 122.9354,135.9159 C 123.2539,136.2348 123.63,136.8268 124.1422,136.8388 C 124.6555,136.8501 124.9169,136.8247 125.3279,136.3488 C 125.5438,136.0987 125.7463,135.893 126.0282,135.8136 C 126.2924,135.7388 126.5795,135.7685 126.836,135.8581 C 127.1197,135.9579 127.2883,136.1643 127.4805,136.3834 C 127.6516,136.5763 128.0729,137.0438 128.7346,136.9418 C 128.9519,136.9076 129.1826,136.8543 129.3343,136.6896 C 129.7936,136.1893 130.0808,135.7903 130.75,135.7903 C 130.8982,135.7903 131.2654,135.8944 131.4146,135.9741 L 131.1345,136.6882 C 131.1345,136.6882 130.6022,136.565 130.2152,136.8843 C 129.8278,137.2036 129.6458,137.5108 129.4754,137.659 C 129.304,137.8072 129.1262,137.9504 128.6087,137.9892 C 128.1536,138.0234 127.7762,137.75 127.4576,137.3168 C 127.0816,136.807 126.7514,136.7354 126.4557,136.7474 C 126.1594,136.7587 125.8066,136.7933 125.4415,137.2378 C 125.0771,137.6819 124.792,137.9892 124.12,137.9095 C 123.4476,137.8297 123.3227,137.4195 123.1057,137.1799 C 122.8895,136.9418 122.6503,136.5537 122.2517,136.5315 C 121.853,136.5082 121.477,136.6451 121.477,136.6451 L 121.344,136.346 L 121.344,136.346 z "
   style="fill:none;fill-rule:nonzero;stroke:#1f1a17;stroke-width:0.0762" />
   <path
   id="_104789392"
   class="fil2 str0"
   d="M 127.918,130.43 C 127.918,130.43 127.8252,130.788 127.5931,130.9147 C 127.3606,131.0403 127.1814,131.0671 126.8833,130.994 C 126.5848,130.9214 126.6183,130.8286 126.5055,130.8018"
   style="fill:none;fill-rule:nonzero;stroke:#1f1a17;stroke-width:0.0762" />
   <path
   id="_104784712"
   class="fil4"
   d="M 125.55,130.433 C 125.55,130.433 125.5517,130.5836 125.8064,130.5519 C 126.0308,130.5247 126.1839,130.5036 126.1839,130.5036 C 126.1839,130.5036 126.3035,130.4524 126.331,130.3783 C 126.331,130.3783 126.3077,130.4894 126.331,130.5635 C 126.331,130.5635 126.2848,130.5226 126.2164,130.5268 C 126.1987,130.5279 126.059,130.5635 125.7408,130.6009 C 125.6689,130.609 125.5814,130.6341 125.6279,130.7163 C 125.6424,130.742 125.6579,130.7523 125.6579,130.7523 C 125.6579,130.7523 125.5376,130.6789 125.5606,130.6055 C 125.5606,130.6055 125.4812,130.4464 125.55,130.433 L 125.55,130.433 z "
   style="fill:#1f1a17;fill-rule:nonzero" />
   <path
   id="_104790304"
   class="fil2 str0"
   d="M 127.812,130.093 C 127.812,130.093 127.8649,130.0591 127.9379,130.093 C 128.0117,130.1258 128.1521,130.1547 128.2583,130.1413 C 128.3644,130.1279 128.4078,130.1198 128.4671,130.0941"
   style="fill:none;fill-rule:nonzero;stroke:#1f1a17;stroke-width:0.0762" />
   <path
   id="_104785312"
   class="fil2 str2"
   d="M 131.638,127.69 L 120.968,127.69 L 120.9747,133.3524 C 120.9715,134.2735 120.9098,135.1568 121.2287,136.031 C 121.9797,138.0902 123.8893,139.6533 126.314,139.6533 C 128.7829,139.6533 130.8619,137.972 131.4394,135.825 C 131.783,134.5434 131.6323,133.2286 131.6436,131.917 C 131.6556,130.5082 131.638,129.0989 131.638,127.69 L 131.638,127.69 z "
   style="fill:none;fill-rule:nonzero;stroke:#1f1a17;stroke-width:0.1132" />
  </g>
 </g>
</svg>